<svg xmlns="http://www.w3.org/2000/svg" width="45.521" height="37.958" viewBox="0 0 45.521 37.958">
  <g id="noun_statistic_3133910" transform="translate(-1.239 -5.021)">
    <g id="Layer_15" data-name="Layer 15">
      <path id="Trazado_19" data-name="Trazado 19" d="M43.938,5.021H4.062A2.825,2.825,0,0,0,1.239,7.843V34.186a2.825,2.825,0,0,0,2.822,2.822H23v3.971H13.827a1,1,0,0,0,0,2h20.7a1,1,0,0,0,0-2H25V37.008H43.938a2.825,2.825,0,0,0,2.822-2.822V7.843a2.825,2.825,0,0,0-2.822-2.822Zm.822,29.165a.824.824,0,0,1-.822.822H4.062a.824.824,0,0,1-.822-.822V7.843a.823.823,0,0,1,.822-.822H43.939a.823.823,0,0,1,.822.822Z"/>
      <path id="Trazado_20" data-name="Trazado 20" d="M33.211,15.7l-6.484,6.285-3.462-3.2a1,1,0,0,0-1.375.015l-7.962,7.7a1,1,0,0,0,1.391,1.438L22.6,20.887l3.463,3.206a1,1,0,0,0,1.376-.016L34.6,17.133A1,1,0,1,0,33.211,15.7Z"/>
    </g>
  </g>
</svg>
