<svg xmlns="http://www.w3.org/2000/svg" width="57.222" height="42.441" viewBox="0 0 57.222 42.441">
  <g id="noun_partnership_3317419" transform="translate(-3.359 -10.859)">
    <path id="Trazado_21" data-name="Trazado 21" d="M60.4,31.5,47.7,11.3a.822.822,0,0,0-.6-.4,1.128,1.128,0,0,0-.8.1l-6,3.8a.984.984,0,0,0-.3,1.4l.3.5c-2.4-.4-6.1-.6-8.5.5h-.1c-2.6-.9-7-.4-9.6.1l.8-1.3a1.012,1.012,0,0,0-.4-1.4l-5.9-3.5a1.063,1.063,0,0,0-.8-.1c-.3.1-.5.2-.6.5L3.5,32.1a1.012,1.012,0,0,0,.4,1.4l5.8,3.3a.9.9,0,0,0,.5.1,1.193,1.193,0,0,0,.9-.5l1.2-2.1A5.552,5.552,0,0,0,13.4,36a4.3,4.3,0,0,0-1.1,2.8A4.1,4.1,0,0,0,16.5,43h.4v.4a4.234,4.234,0,0,0,1.2,3,4.07,4.07,0,0,0,3,1.2h.4V48a4.1,4.1,0,0,0,4.2,4.2,4.41,4.41,0,0,0,3-1.2l.4-.4,2.4,1.8a4.041,4.041,0,0,0,2.5.9,3.8,3.8,0,0,0,3.2-1.5,3.716,3.716,0,0,0,.8-2.2h.2a4.073,4.073,0,0,0,3.2-1.5,3.964,3.964,0,0,0,.8-2.2h.3a4.314,4.314,0,0,0,3.2-1.4,3.3,3.3,0,0,0,.8-2.2,3.531,3.531,0,0,0,2.6-1.5,3.711,3.711,0,0,0,.4-3.9l2.7-1.6.8,1.3a.822.822,0,0,0,.6.4h.2a.764.764,0,0,0,.5-.2l6-3.9A1.209,1.209,0,0,0,60.4,31.5Zm-50.6,3L5.7,32.2l10.7-19,4.2,2.5Zm5,5.9a2.2,2.2,0,0,1-.6-1.5,2.035,2.035,0,0,1,.6-1.5l.6-.6a2.3,2.3,0,0,1,3.1,0,2.2,2.2,0,0,1,.6,1.5,2.035,2.035,0,0,1-.6,1.5l-.6.6A2.3,2.3,0,0,1,14.8,40.4Zm4.5,4.5h0a2.2,2.2,0,0,1-.6-1.5,2.035,2.035,0,0,1,.6-1.5l.6-.6a2.175,2.175,0,0,1,3,0,2.117,2.117,0,0,1,0,3.1l-.6.6A2.286,2.286,0,0,1,19.3,44.9Zm7.6,4.5a2.3,2.3,0,0,1-3.1,0,2.2,2.2,0,0,1-.6-1.5,2.035,2.035,0,0,1,.6-1.5l.6-.6A2.1,2.1,0,0,1,28,47.3a2.035,2.035,0,0,1-.6,1.5Zm20.3-10a1.809,1.809,0,0,1-1.7.7A.749.749,0,0,0,45,40l-.6-.3-2-1.6a1,1,0,0,0-1.2,1.6l2,1.6a8.793,8.793,0,0,0,1,.6,2.016,2.016,0,0,1-.3,1.1,2.166,2.166,0,0,1-2.8.4l-.1-.1a.1.1,0,0,1-.1-.1l-2-1.6a1,1,0,0,0-1.2,1.6l2,1.6.1.1a1.681,1.681,0,0,1-.1,1.8,2.149,2.149,0,0,1-2.6.5c-.1-.1-.2-.1-.3-.2l-.1-.1-2-1.6a1,1,0,1,0-1.2,1.6l2,1.6c.1,0,.1.1.2.2a1.734,1.734,0,0,1-.3,1.8,1.753,1.753,0,0,1-1.6.7,1.656,1.656,0,0,1-1.3-.5l-2-1.5-.5-.3a4.146,4.146,0,0,0,.3-1.6,4.234,4.234,0,0,0-1.2-3,4.138,4.138,0,0,0-3.3-1.2,4.152,4.152,0,0,0-4.5-4.5v-.4a4.234,4.234,0,0,0-1.2-3,4.07,4.07,0,0,0-3-1.2,4.032,4.032,0,0,0-2.2.6,5.677,5.677,0,0,1-1.2-2.7l7.2-12.5c2-.4,6.2-1.1,9-.7L23,25.1a3.139,3.139,0,0,0-.1,4.4,3.194,3.194,0,0,0,2.4,1.1,3.371,3.371,0,0,0,1.7-.5l5.7-3.8a3.471,3.471,0,0,1,2.8-.6l1,.1,9.1,9.6h0l1.6,1.7A1.945,1.945,0,0,1,47.2,39.4Zm.8-4.3-1.1-1.2h0L39.5,26l1.3.1a1,1,0,1,0,.2-2l-3.8-.4a.9.9,0,0,0-.5-.1l-1-.1a5.774,5.774,0,0,0-4.2,1l-5.7,3.8a1.182,1.182,0,0,1-1.5-1.8l7.5-7c.1-.1.3-.2.4-.4a.52.52,0,0,0,.4-.2c2.1-1,6.4-.6,9.1,0l9.1,14.5Zm5.9-.6-.7-1a.367.367,0,0,0-.1-.3c-.1-.1-.2-.2-.2-.3l-10.6-17,4.3-2.7L58.2,31.7Z"/>
  </g>
</svg>
