<svg xmlns="http://www.w3.org/2000/svg" width="65.891" height="66.258" viewBox="0 0 65.891 66.258">
  <g id="noun_Server_2132061" transform="translate(-2.055 -1.871)">
    <path id="Trazado_5" data-name="Trazado 5" d="M2.055,30.642a12.977,12.977,0,0,0,9.688,12.632v.4a1,1,0,0,0,1,1H20.59v1.3H12.742a1,1,0,0,0-1,1V57.259a1,1,0,0,0,1,1H34v3.025H31a1,1,0,0,0-1,1V63.71h-6.11a1,1,0,0,0,0,2H30v1.419a1,1,0,0,0,1,1h8a1,1,0,0,0,1-1V65.71h6.113a1,1,0,0,0,0-2H40V62.284a1,1,0,0,0-1-1H36V58.259H57.265a1,1,0,0,0,1-1V46.981a1,1,0,0,0-1-1H49.418v-1.3h7.847a1,1,0,0,0,1-1v-.411a13.074,13.074,0,0,0-.725-25.424,13.16,13.16,0,0,0,.335-2.94A12.744,12.744,0,0,0,34.037,8.35a12.6,12.6,0,0,0-5.522-1.288,12.827,12.827,0,0,0-12.568,10.6c-.383-.036-.744-.054-1.091-.054A12.932,12.932,0,0,0,2.055,30.642ZM38,66.129H32V64.72s0-.006,0-.01,0-.006,0-.01V63.284h6Zm18.261-9.87H13.742V47.981H56.265ZM47.418,45.981H22.59v-1.3H47.418Zm8.847-3.3H13.742V34.4H56.265ZM14.855,19.611a11.5,11.5,0,0,1,1.783.157,1,1,0,0,0,1.15-.882A10.854,10.854,0,0,1,28.515,9.062a10.651,10.651,0,0,1,5.43,1.509,1,1,0,0,0,1.416-.434A10.749,10.749,0,0,1,55.875,14.9a11.288,11.288,0,0,1-.552,3.464,1,1,0,0,0,.857,1.3,11.067,11.067,0,0,1,2.084,21.526V33.4a1,1,0,0,0-1-1H12.742a1,1,0,0,0-1,1v7.8a11.059,11.059,0,0,1,3.113-21.588Z"/>
    <path id="Trazado_6" data-name="Trazado 6" d="M50.122,41.87a3.332,3.332,0,1,0-3.332-3.332A3.335,3.335,0,0,0,50.122,41.87Zm0-4.663a1.332,1.332,0,1,1-1.332,1.331A1.332,1.332,0,0,1,50.122,37.207Z"/>
    <path id="Trazado_7" data-name="Trazado 7" d="M41.979,41.87a3.332,3.332,0,1,0-3.331-3.332A3.336,3.336,0,0,0,41.979,41.87Zm0-4.663a1.332,1.332,0,1,1-1.331,1.331A1.333,1.333,0,0,1,41.979,37.207Z"/>
    <path id="Trazado_8" data-name="Trazado 8" d="M17.554,39.538H35.293a1,1,0,0,0,0-2H17.554a1,1,0,0,0,0,2Z"/>
    <path id="Trazado_9" data-name="Trazado 9" d="M46.79,52.12a3.332,3.332,0,1,0,3.332-3.332A3.335,3.335,0,0,0,46.79,52.12Zm3.332-1.332A1.332,1.332,0,1,1,48.79,52.12,1.333,1.333,0,0,1,50.122,50.788Z"/>
    <path id="Trazado_10" data-name="Trazado 10" d="M41.979,48.788a3.332,3.332,0,1,0,3.332,3.332A3.335,3.335,0,0,0,41.979,48.788Zm0,4.663a1.332,1.332,0,1,1,1.332-1.331A1.332,1.332,0,0,1,41.979,53.451Z"/>
    <path id="Trazado_11" data-name="Trazado 11" d="M35.293,51.12H17.554a1,1,0,0,0,0,2H35.293a1,1,0,0,0,0-2Z"/>
  </g>
</svg>
