<svg xmlns="http://www.w3.org/2000/svg" width="41.239" height="29.436" viewBox="0 0 41.239 29.436">
  <g id="Icon_ionic-ios-wifi" data-name="Icon ionic-ios-wifi" transform="translate(-2.246 -6.75)">
    <path id="Trazado_1" data-name="Trazado 1" d="M22.856,6.75A30.409,30.409,0,0,0,2.481,14.873a.733.733,0,0,0-.028,1.049L4.91,18.488a.755.755,0,0,0,1.067.028,24.713,24.713,0,0,1,16.889-6.6,24.713,24.713,0,0,1,16.889,6.6.755.755,0,0,0,1.067-.028l2.456-2.566a.733.733,0,0,0-.028-1.049A30.491,30.491,0,0,0,22.856,6.75Z"/>
    <path id="Trazado_2" data-name="Trazado 2" d="M8.012,20.949l2.631,2.6a.754.754,0,0,0,1.03.028,14.309,14.309,0,0,1,18.931,0,.754.754,0,0,0,1.03-.028l2.631-2.6a.735.735,0,0,0-.028-1.076,19.617,19.617,0,0,0-26.217,0A.75.75,0,0,0,8.012,20.949Z" transform="translate(1.709 2.497)"/>
    <path id="Trazado_3" data-name="Trazado 3" d="M19.335,22.8a7.5,7.5,0,0,0-5.464,2.346.736.736,0,0,0,.018,1.03L18.8,31.019a.755.755,0,0,0,1.067,0l4.912-4.848a.736.736,0,0,0,.018-1.03A7.531,7.531,0,0,0,19.335,22.8Z" transform="translate(3.521 4.946)"/>
  </g>
</svg>
