<svg xmlns="http://www.w3.org/2000/svg" width="48.228" height="58.673" viewBox="0 0 48.228 58.673">
  <g id="noun_timer_2117865" transform="translate(-13.011 -5)">
    <path id="Trazado_37" data-name="Trazado 37" d="M37.8,24.884A22.855,22.855,0,1,0,60.652,47.739,22.855,22.855,0,0,0,37.8,24.884Zm0,42.451a19.6,19.6,0,1,1,19.6-19.6A19.6,19.6,0,0,1,37.8,67.334Z" transform="translate(-0.672 -6.921)"/>
    <path id="Trazado_38" data-name="Trazado 38" d="M47.353,14.912c.711,0,1.422.027,2.12.087V10.458L51.956,9.19a.728.728,0,0,0,.351-.657V5.708A.648.648,0,0,0,51.745,5H42.96a.648.648,0,0,0-.562.708V8.533a.728.728,0,0,0,.351.657l2.484,1.268V15C45.931,14.938,46.642,14.912,47.353,14.912Z" transform="translate(-10.228)"/>
    <path id="Trazado_39" data-name="Trazado 39" d="M63.021,53.482a.246.246,0,0,0-.283-.2L50.319,55.333a3,3,0,1,0,.917,3.217l11.636-4.8A.246.246,0,0,0,63.021,53.482Z" transform="translate(-11.265 -16.804)"/>
    <path id="Trazado_40" data-name="Trazado 40" d="M1.162,0H5.867A1.162,1.162,0,0,1,7.03,1.162v1.9A1.162,1.162,0,0,1,5.867,4.227H1.162A1.162,1.162,0,0,1,0,3.065v-1.9A1.162,1.162,0,0,1,1.162,0Z" transform="translate(13.011 22.449) rotate(-46.038)"/>
    <path id="Trazado_41" data-name="Trazado 41" d="M1.162,0h1.9A1.162,1.162,0,0,1,4.227,1.162V5.867A1.162,1.162,0,0,1,3.065,7.03h-1.9A1.162,1.162,0,0,1,0,5.867V1.162A1.162,1.162,0,0,1,1.162,0Z" transform="translate(53.316 20.323) rotate(-43.959)"/>
  </g>
</svg>
