<svg xmlns="http://www.w3.org/2000/svg" width="44.802" height="50.286" viewBox="0 0 44.802 50.286">
  <g id="noun_Shield_3204671" transform="translate(-14.988 -11.87)">
    <g id="Grupo_2" data-name="Grupo 2" transform="translate(14.988 11.87)">
      <path id="Trazado_23" data-name="Trazado 23" d="M59.61,17.3l-.065-.9-.9.073c-10.725.863-20.739-4.326-20.839-4.378l-.418-.22-.417.22c-.1.053-10.1,5.244-20.838,4.378l-.9-.073-.065.9c-.069.959-1.608,23.6,5.732,33.727a28.626,28.626,0,0,0,16.319,11.1l.17.033.17-.033a28.628,28.628,0,0,0,16.32-11.1C61.217,40.9,59.679,18.254,59.61,17.3ZM52.428,49.971A27.479,27.479,0,0,1,37.389,60.327,27.477,27.477,0,0,1,22.35,49.971C16.18,41.458,16.7,22.624,16.9,18.313c9.763.506,18.479-3.446,20.484-4.428,2,.983,10.725,4.927,20.485,4.428C58.081,22.623,58.6,41.453,52.428,49.971Z" transform="translate(-14.988 -11.87)"/>
      <path id="Trazado_24" data-name="Trazado 24" d="M56.722,21.339l-.9.076c-7.968.667-15.418-3.336-15.493-3.376L39,17.316V57.532l1.071-.215a21.619,21.619,0,0,0,12.381-8.724c5.542-7.93,4.384-25.6,4.332-26.348Z" transform="translate(-17.495 -12.439)"/>
    </g>
  </g>
</svg>
