<svg xmlns="http://www.w3.org/2000/svg" width="51.964" height="46.12" viewBox="0 0 51.964 46.12">
  <g id="noun_graphic_1007930" transform="translate(0 -9.524)">
    <path id="Trazado_31" data-name="Trazado 31" d="M2.316,53.328H51.964v2.316H0V9.524H2.316v43.8ZM5.633,35.181l3.825-3.5.619-.559.605.58L12.72,33.65l3.756-4.583.829-1.012.649,1.139,4,7.025,3.4-2.85.649-.544.583.618,3,3.179,3.368-5.005.121-.179.19-.106,7.767-4.341.592-.331.481.483,4.531,4.566V25.9l-4.912-4.929-7.767,4.341-4,5.939-3.77-4-4.226,3.541-4.538-7.962-4.372,5.335-2.741-2.627L5.633,29.763v5.419Zm0,14.985H46.639V34.255l-5.324-5.362L34.33,32.8l-3.877,5.76-.629.935-.771-.819-3.187-3.38-3.577,3-.825.691-.534-.937L17.041,31.22,13.5,35.543l-.617.752-.7-.675-2.136-2.047L5.633,37.606Z" fill-rule="evenodd"/>
  </g>
</svg>
