<svg xmlns="http://www.w3.org/2000/svg" width="56" height="46.12" viewBox="0 0 56 46.12">
  <g id="noun_graphic_2191258" transform="translate(-4 -8.94)">
    <g id="Grupo_4" data-name="Grupo 4">
      <path id="Trazado_32" data-name="Trazado 32" d="M8.71,51.83h9.6a1,1,0,0,0,1-1V35.28a1,1,0,0,0-1-1H8.71a1,1,0,0,0-1,1V50.83A1,1,0,0,0,8.71,51.83Z"/>
      <path id="Trazado_33" data-name="Trazado 33" d="M23.56,51.83h9.6a1,1,0,0,0,1-1V27.52a1,1,0,0,0-1-1h-9.6a1,1,0,0,0-1,1V50.83A1,1,0,0,0,23.56,51.83Z"/>
      <path id="Trazado_34" data-name="Trazado 34" d="M38.41,51.83h9.6a1,1,0,0,0,1-1V17.96a1,1,0,0,0-1-1h-9.6a1,1,0,0,0-1,1V50.83A1,1,0,0,0,38.41,51.83Z"/>
      <path id="Trazado_35" data-name="Trazado 35" d="M59,53.06H6V9.94a1,1,0,0,0-2,0V54.06a1,1,0,0,0,1,1H59a1,1,0,1,0,0-2Z"/>
    </g>
  </g>
</svg>
