<svg xmlns="http://www.w3.org/2000/svg" width="45.735" height="45.701" viewBox="0 0 45.735 45.701">
  <g id="noun_bullseye_3405480" transform="translate(-2.5 -2.562)">
    <g id="Grupo_3" data-name="Grupo 3" transform="translate(2.5 2.562)">
      <path id="Trazado_25" data-name="Trazado 25" d="M40.721,18.7l-.963.963a18.6,18.6,0,0,1,2.985,10.109A18.842,18.842,0,1,1,34.078,13.98l.963-.963V11.381A21.151,21.151,0,0,0,23.969,8.3,21.469,21.469,0,1,0,45.439,29.769,21.151,21.151,0,0,0,42.358,18.7H40.721Z" transform="translate(-2.5 -5.538)"/>
      <path id="Trazado_26" data-name="Trazado 26" d="M38.466,24.529a14.581,14.581,0,1,0,5.68,5.68l-1.974,1.974a11.772,11.772,0,1,1-5.68-5.68Z" transform="translate(-9.968 -13.006)"/>
      <path id="Trazado_27" data-name="Trazado 27" d="M38.087,39.844l2.551-2.551a6.6,6.6,0,0,0-1.733-.193,7.606,7.606,0,1,0,7.606,7.606,7.087,7.087,0,0,0-.193-1.733l-2.551,2.551a4.943,4.943,0,1,1-5.68-5.68Z" transform="translate(-17.436 -20.474)"/>
      <path id="Trazado_28" data-name="Trazado 28" d="M69.8,7.587a.987.987,0,0,0-.915-.626H65.468V3.543a.987.987,0,0,0-.626-.915,1.047,1.047,0,0,0-1.107.241L59.643,6.961a.98.98,0,0,0-.289.722V11.2L44.672,25.831a1.308,1.308,0,0,0,0,1.877,1.431,1.431,0,0,0,.963.385,1.529,1.529,0,0,0,.963-.385L61.28,13.026h3.514a.98.98,0,0,0,.722-.289l4.092-4.092A.866.866,0,0,0,69.8,7.587Z" transform="translate(-24.165 -2.562)"/>
    </g>
  </g>
</svg>
