<svg xmlns="http://www.w3.org/2000/svg" width="45.365" height="40.687" viewBox="0 0 45.365 40.687">
  <g id="noun_Diamond_4298980" transform="translate(-4.347 -6.373)">
    <path id="Trazado_22" data-name="Trazado 22" d="M18.053,19.2H4.347a5.528,5.528,0,0,0,1.136,2.589L25.552,47.06Zm31.659,0H36.005l-7.5,27.856L48.575,21.793A5.528,5.528,0,0,0,49.711,19.2Zm-29.265,0,6.583,24.451L33.611,19.2ZM42.461,7.737,37.13,16.893H49.586a5.535,5.535,0,0,0-1.14-2.158Zm-25.57,9.155L11.46,7.9,5.611,14.735a5.535,5.535,0,0,0-1.14,2.158Zm4.384,0H32.894L27.037,8.579Zm-2.209-.866,6.69-9.654H13.239Zm15.961-.114-6.72-9.539H40.581Z" fill-rule="evenodd"/>
  </g>
</svg>
