<svg id="Capa_1" data-name="Capa 1" xmlns="http://www.w3.org/2000/svg" viewBox="0 0 75.63 78.33">
  <path id="Icon_material-person" data-name="Icon material-person" d="M660.68,382.05a7.66,7.66,0,1,0-7.66-7.66,7.65,7.65,0,0,0,7.66,7.66Zm0,3.83c-5.12,0-15.32,2.56-15.32,7.65v3.83H676v-3.83C676,388.44,665.79,385.88,660.68,385.88Z" transform="translate(-645.36 -344.39)"/>
  <g id="noun_person_2326451" data-name="noun person 2326451">
  <path id="Trazado_4" data-name="Trazado 4" d="M701.72,413l-4.22,7.6A1.43,1.43,0,0,0,700,422l5.89-10.63a1.44,1.44,0,0,0-.56-1.95l-10.62-5.89a1.44,1.44,0,0,0-2,.56,1.42,1.42,0,0,0,.56,2l7.6,4.22-7.69,2.2a32.9,32.9,0,0,1-29.89-6.13,1.43,1.43,0,0,0-1.82,2.21h0A35.77,35.77,0,0,0,694,415.21Z" transform="translate(-645.36 -344.39)"/></g>
  <g id="noun_person_2326451-2" data-name="noun person 2326451-2">
  <path id="Trazado_4-2" data-name="Trazado 4-2" d="M663.88,353.82l2.67-7.72a1.35,1.35,0,0,0-2.54-.88L660.28,356a1.35,1.35,0,0,0,.84,1.71l10.79,3.72a1.35,1.35,0,0,0,.88-2.54l-7.73-2.66,6.76-3.29a30.89,30.89,0,0,1,28.67.8,1.36,1.36,0,0,0,1.84-.52,1.35,1.35,0,0,0-.52-1.83,33.62,33.62,0,0,0-31.17-.88Z" transform="translate(-645.36 -344.39)"/></g>
  <path id="Icon_material-person-2" data-name="Icon material-person-2" d="M705.68,382.05a7.66,7.66,0,1,0-7.66-7.66,7.65,7.65,0,0,0,7.66,7.66Zm0,3.83c-5.12,0-15.32,2.56-15.32,7.65v3.83H721v-3.83C721,388.44,710.79,385.88,705.68,385.88Z" transform="translate(-645.36 -344.39)"/>
</svg>