<svg xmlns="http://www.w3.org/2000/svg" viewBox="0 0 29.18 24.89">
  <g id="Capa_2" data-name="Capa 2">  
    <path d="M347.77,88.94c-.83-.59-1.81-1.6-1.81-2,0-.62.11-.92,1.26-1.82a5.27,5.27,0,0,0,2.23-5A4.83,4.83,0,0,0,348,76.94h1.22l2.7-2H343.3a6.48,6.48,0,0,0-6,3.23,5.94,5.94,0,0,0,.18,6,5.68,5.68,0,0,0,5.1,2.42,3.13,3.13,0,0,0,.37,2.64c-3.71-.06-6.17,1.61-7.24,3.26a4.18,4.18,0,0,0-.27,4.36c.64,1.14,2.43,3,7.38,3h.24c3.58,0,6.42-1.74,7.29-4.47A5.63,5.63,0,0,0,347.77,88.94Zm-7.47-11a2.22,2.22,0,0,1,2.09-1.16h.14A3.18,3.18,0,0,1,345,78.42c1.09,1.71,1.36,4.13.61,5.51a2.2,2.2,0,0,1-2.07,1.19h0a3.14,3.14,0,0,1-2.64-1.68C339.82,81.72,339.55,79.31,340.3,77.94Zm6.85,18.6c-1.53,1.38-4.76,1.72-6.92.72a3.06,3.06,0,0,1-2-3c0-2.1,2.1-3.1,3.86-3.32a6.54,6.54,0,0,1,.89-.06c2.09,0,4.28.9,4.8,2.81v0A2.41,2.41,0,0,1,347.15,96.54Z" transform="translate(-334.95 -74.97)"/>
    <polygon points="23.82 5.36 23.82 0 21.28 0 21.28 5.36 15.93 5.36 15.93 7.89 21.28 7.89 21.28 13.25 23.82 13.25 23.82 7.89 29.18 7.89 29.18 5.36 23.82 5.36"/>
  </g>
</svg>