<svg xmlns="http://www.w3.org/2000/svg" width="26.953" height="21.891" viewBox="0 0 26.953 21.891">
  <path id="Icon_awesome-twitter" data-name="Icon awesome-twitter" d="M24.182,8.836c.017.239.017.479.017.718A15.609,15.609,0,0,1,8.483,25.271,15.61,15.61,0,0,1,0,22.792a11.428,11.428,0,0,0,1.334.068A11.063,11.063,0,0,0,8.192,20.5a5.534,5.534,0,0,1-5.165-3.831,6.966,6.966,0,0,0,1.043.085,5.842,5.842,0,0,0,1.454-.188,5.525,5.525,0,0,1-4.429-5.421v-.068a5.563,5.563,0,0,0,2.5.7A5.532,5.532,0,0,1,1.881,4.39a15.7,15.7,0,0,0,11.39,5.781A6.236,6.236,0,0,1,13.134,8.9a5.529,5.529,0,0,1,9.56-3.78A10.876,10.876,0,0,0,26.2,3.791a5.509,5.509,0,0,1-2.428,3.044,11.074,11.074,0,0,0,3.181-.855,11.874,11.874,0,0,1-2.77,2.856Z" transform="translate(0 -3.381)"/>
</svg>
