<svg xmlns="http://www.w3.org/2000/svg" width="31.077" height="19.482" viewBox="0 0 31.077 19.482">
  <path id="Icon_awesome-behance" data-name="Icon awesome-behance" d="M12.517,14.031a4.094,4.094,0,0,0,2.611-3.992C15.128,6.23,12.29,5.3,9.015,5.3H0V24.422H9.269c3.475,0,6.739-1.667,6.739-5.552a4.607,4.607,0,0,0-3.491-4.84ZM4.2,8.566H8.147c1.516,0,2.881.426,2.881,2.185,0,1.624-1.063,2.277-2.563,2.277H4.2V8.566ZM8.7,21.174H4.2V15.909H8.783c1.851,0,3.021.772,3.021,2.73C11.8,20.57,10.407,21.174,8.7,21.174ZM28.039,8.188H20.286V6.305h7.753V8.188ZM31.077,17.7c0-4.1-2.4-7.51-6.739-7.51a6.957,6.957,0,0,0-7.084,7.327c0,4.311,2.714,7.267,7.084,7.267a6.172,6.172,0,0,0,6.48-4.656H27.462a3.15,3.15,0,0,1-3.005,1.807c-2.228,0-3.4-1.306-3.4-3.523h9.987C31.061,18.185,31.077,17.943,31.077,17.7ZM21.063,16.017a2.972,2.972,0,0,1,3.156-2.957c1.91,0,2.87,1.122,3.032,2.957Z" transform="translate(0 -5.302)"/>
</svg>
