<svg xmlns="http://www.w3.org/2000/svg" width="48.115" height="36.912" viewBox="0 0 48.115 36.912">
  <g id="noun_person_2326451" transform="translate(0 11.726) rotate(-16)">
    <path id="Trazado_4" data-name="Trazado 4" d="M37.651,17.608,31.5,23.756a1.432,1.432,0,0,0,2.025,2.025l8.593-8.593a1.432,1.432,0,0,0,0-2.025L33.529,6.571A1.432,1.432,0,0,0,31.5,8.6l6.148,6.148h-8A32.894,32.894,0,0,1,2.607.614,1.432,1.432,0,1,0,.257,2.251,35.757,35.757,0,0,0,29.652,17.608Z" transform="translate(0 0)"/>
  </g>
</svg>
